<svg width="91" height="23" viewBox="0 0 91 23" fill="none" xmlns="http://www.w3.org/2000/svg">
<path d="M32.952 12.362V15.966H37.474C37.7913 15.966 38.052 15.9943 38.256 16.051C38.46 16.119 38.6187 16.204 38.732 16.306C38.8453 16.4193 38.919 16.544 38.953 16.68C38.9983 16.8273 39.021 16.986 39.021 17.156C39.021 17.292 38.9983 17.428 38.953 17.564C38.919 17.7113 38.8453 17.836 38.732 17.938C38.6187 18.0513 38.46 18.142 38.256 18.21C38.052 18.278 37.7913 18.312 37.474 18.312H25.659C25.3417 18.312 25.081 18.278 24.877 18.21C24.673 18.142 24.5143 18.0513 24.401 17.938C24.2877 17.836 24.2083 17.7113 24.163 17.564C24.129 17.428 24.112 17.292 24.112 17.156C24.112 16.986 24.129 16.8273 24.163 16.68C24.2083 16.544 24.2877 16.4193 24.401 16.306C24.5143 16.204 24.673 16.119 24.877 16.051C25.081 15.9943 25.3417 15.966 25.659 15.966H30.198V12.362H26.713C26.3957 12.362 26.1463 12.328 25.965 12.26C25.7837 12.192 25.642 12.1013 25.54 11.988C25.4493 11.8633 25.3927 11.7273 25.37 11.58C25.3473 11.4213 25.336 11.257 25.336 11.087V5.579C25.336 5.01233 25.472 4.627 25.744 4.423C26.0273 4.20767 26.3503 4.1 26.713 4.1H36.352C36.6353 4.1 36.862 4.134 37.032 4.202C37.202 4.27 37.3323 4.36067 37.423 4.474C37.5137 4.58733 37.5703 4.71767 37.593 4.865C37.627 5.001 37.644 5.14267 37.644 5.29C37.644 5.41467 37.627 5.545 37.593 5.681C37.5703 5.817 37.5137 5.94167 37.423 6.055C37.3323 6.16833 37.202 6.26467 37.032 6.344C36.862 6.42333 36.6353 6.463 36.352 6.463H28.09V9.999H36.522C36.8053 9.999 37.032 10.0387 37.202 10.118C37.372 10.1973 37.5023 10.2937 37.593 10.407C37.6837 10.5203 37.7403 10.6507 37.763 10.798C37.797 10.934 37.814 11.0587 37.814 11.172C37.814 11.3193 37.797 11.4667 37.763 11.614C37.7403 11.75 37.6837 11.8747 37.593 11.988C37.5023 12.1013 37.372 12.192 37.202 12.26C37.032 12.328 36.8053 12.362 36.522 12.362H32.952ZM49.1053 13.501V15.966H53.6273C53.9447 15.966 54.2053 15.9943 54.4093 16.051C54.6133 16.119 54.772 16.204 54.8853 16.306C54.9987 16.4193 55.0723 16.544 55.1063 16.68C55.1517 16.8273 55.1743 16.986 55.1743 17.156C55.1743 17.292 55.1517 17.428 55.1063 17.564C55.0723 17.7113 54.9987 17.836 54.8853 17.938C54.772 18.0513 54.6133 18.142 54.4093 18.21C54.2053 18.278 53.9447 18.312 53.6273 18.312H41.8123C41.495 18.312 41.2343 18.278 41.0303 18.21C40.8263 18.142 40.6677 18.0513 40.5543 17.938C40.441 17.836 40.3617 17.7113 40.3163 17.564C40.2823 17.428 40.2653 17.292 40.2653 17.156C40.2653 16.986 40.2823 16.8273 40.3163 16.68C40.3617 16.544 40.441 16.4193 40.5543 16.306C40.6677 16.204 40.8263 16.119 41.0303 16.051C41.2343 15.9943 41.495 15.966 41.8123 15.966H46.3513V13.501H42.8663C42.549 13.501 42.2997 13.467 42.1183 13.399C41.937 13.331 41.7953 13.2403 41.6933 13.127C41.6027 13.0023 41.546 12.8663 41.5233 12.719C41.5007 12.5603 41.4893 12.396 41.4893 12.226V5.443C41.4893 5.15967 41.5233 4.933 41.5913 4.763C41.6707 4.58167 41.7727 4.44567 41.8973 4.355C42.0333 4.253 42.1807 4.185 42.3393 4.151C42.5093 4.117 42.685 4.1 42.8663 4.1H52.5053C52.7887 4.1 53.0153 4.134 53.1853 4.202C53.3553 4.27 53.4857 4.36067 53.5763 4.474C53.667 4.58733 53.7237 4.712 53.7463 4.848C53.7803 4.984 53.7973 5.12567 53.7973 5.273C53.7973 5.39767 53.7803 5.528 53.7463 5.664C53.7237 5.78867 53.667 5.91333 53.5763 6.038C53.4857 6.15133 53.3553 6.24767 53.1853 6.327C53.0153 6.395 52.7887 6.429 52.5053 6.429H44.2433V7.619H52.5053C52.7887 7.619 53.0153 7.653 53.1853 7.721C53.3553 7.789 53.4857 7.87967 53.5763 7.993C53.667 8.10633 53.7237 8.231 53.7463 8.367C53.7803 8.503 53.7973 8.64467 53.7973 8.792C53.7973 8.91667 53.7803 9.047 53.7463 9.183C53.7237 9.30767 53.667 9.43233 53.5763 9.557C53.4857 9.67033 53.3553 9.76667 53.1853 9.846C53.0153 9.914 52.7887 9.948 52.5053 9.948H44.2433V11.172H52.6753C52.9587 11.172 53.1853 11.2117 53.3553 11.291C53.5253 11.359 53.6557 11.4553 53.7463 11.58C53.837 11.6933 53.8937 11.818 53.9163 11.954C53.9503 12.09 53.9673 12.2147 53.9673 12.328C53.9673 12.4753 53.9503 12.6227 53.9163 12.77C53.8937 12.906 53.837 13.0307 53.7463 13.144C53.6557 13.246 53.5253 13.331 53.3553 13.399C53.1853 13.467 52.9587 13.501 52.6753 13.501H49.1053ZM67.7236 5.409C67.7236 4.84233 67.8596 4.457 68.1316 4.253C68.415 4.03767 68.738 3.93 69.1006 3.93C69.282 3.93 69.452 3.95267 69.6106 3.998C69.7806 4.04333 69.928 4.12267 70.0526 4.236C70.1773 4.34933 70.2793 4.50233 70.3586 4.695C70.438 4.88767 70.4776 5.12567 70.4776 5.409V17.02C70.4776 17.3147 70.438 17.5583 70.3586 17.751C70.2793 17.9437 70.1773 18.0967 70.0526 18.21C69.928 18.3233 69.7806 18.4027 69.6106 18.448C69.452 18.4933 69.282 18.516 69.1006 18.516C68.9193 18.516 68.7436 18.4933 68.5736 18.448C68.415 18.4027 68.2676 18.3233 68.1316 18.21C68.007 18.0967 67.905 17.9437 67.8256 17.751C67.7576 17.5583 67.7236 17.3147 67.7236 17.02V5.409ZM59.9036 15.745H62.8276C63.145 15.745 63.4056 15.779 63.6096 15.847C63.8136 15.915 63.9723 16 64.0856 16.102C64.199 16.2153 64.2726 16.34 64.3066 16.476C64.352 16.6233 64.3746 16.765 64.3746 16.901C64.3746 17.071 64.352 17.224 64.3066 17.36C64.2726 17.5073 64.199 17.632 64.0856 17.734C63.9723 17.8473 63.8136 17.9323 63.6096 17.989C63.4056 18.057 63.145 18.091 62.8276 18.091H58.5266C58.2093 18.091 57.96 18.057 57.7786 17.989C57.5973 17.9323 57.4556 17.8473 57.3536 17.734C57.263 17.632 57.2063 17.5073 57.1836 17.36C57.161 17.224 57.1496 17.071 57.1496 16.901V10.866C57.1496 10.696 57.161 10.5373 57.1836 10.39C57.2063 10.2313 57.263 10.0897 57.3536 9.965C57.4556 9.84033 57.5973 9.744 57.7786 9.676C57.96 9.59667 58.2093 9.557 58.5266 9.557H61.1616V6.48H58.7136C58.3963 6.48 58.1356 6.446 57.9316 6.378C57.7276 6.31 57.569 6.225 57.4556 6.123C57.3423 6.00967 57.263 5.885 57.2176 5.749C57.1836 5.60167 57.1666 5.46 57.1666 5.324C57.1666 5.154 57.1836 5.001 57.2176 4.865C57.263 4.71767 57.3423 4.593 57.4556 4.491C57.569 4.37767 57.7276 4.29267 57.9316 4.236C58.1356 4.168 58.3963 4.134 58.7136 4.134H62.5386C62.856 4.134 63.1053 4.17367 63.2866 4.253C63.468 4.321 63.604 4.41733 63.6946 4.542C63.7966 4.66667 63.859 4.80833 63.8816 4.967C63.9043 5.11433 63.9156 5.273 63.9156 5.443V10.56C63.9156 11.036 63.774 11.3817 63.4906 11.597C63.2186 11.801 62.839 11.903 62.3516 11.903H59.9036V15.745ZM74.289 18.703C73.9716 18.703 73.7223 18.669 73.541 18.601C73.3596 18.5443 73.218 18.4593 73.116 18.346C73.0253 18.244 72.9686 18.1193 72.946 17.972C72.9233 17.836 72.912 17.683 72.912 17.513V14.657C72.912 14.2263 73.0196 13.875 73.235 13.603C73.4616 13.3197 73.8696 13.178 74.459 13.178H84.183C84.5003 13.178 84.7496 13.212 84.931 13.28C85.1123 13.3367 85.2483 13.4217 85.339 13.535C85.441 13.637 85.5033 13.7617 85.526 13.909C85.5486 14.045 85.56 14.198 85.56 14.368V17.224C85.56 17.7907 85.4126 18.176 85.118 18.38C84.8233 18.5953 84.455 18.703 84.013 18.703H74.289ZM72.249 7.415C72.249 7.245 72.266 7.10333 72.3 6.99C72.3453 6.86533 72.4246 6.76333 72.538 6.684C72.6513 6.59333 72.81 6.531 73.014 6.497C73.218 6.45167 73.4786 6.429 73.796 6.429H79.712C80.0293 6.429 80.29 6.45167 80.494 6.497C80.698 6.531 80.8566 6.59333 80.97 6.684C81.0833 6.76333 81.157 6.86533 81.191 6.99C81.2363 7.10333 81.259 7.245 81.259 7.415C81.259 7.66433 81.1853 7.86833 81.038 8.027C80.8906 8.17433 80.5846 8.265 80.12 8.299C80.3126 8.65033 80.409 9.03 80.409 9.438C80.409 10.4693 80.1143 11.2173 79.525 11.682C78.947 12.1467 78.0233 12.379 76.754 12.379C75.4846 12.379 74.5553 12.1297 73.966 11.631C73.388 11.1323 73.099 10.4013 73.099 9.438C73.099 9.01867 73.1896 8.639 73.371 8.299C72.9063 8.265 72.6003 8.17433 72.453 8.027C72.317 7.86833 72.249 7.66433 72.249 7.415ZM82.806 5.409C82.806 4.84233 82.942 4.457 83.214 4.253C83.4973 4.03767 83.8203 3.93 84.183 3.93C84.3643 3.93 84.5343 3.95267 84.693 3.998C84.863 4.04333 85.0103 4.12267 85.135 4.236C85.2596 4.34933 85.3616 4.50233 85.441 4.695C85.5203 4.88767 85.56 5.12567 85.56 5.409V7.109H86.631C86.9483 7.109 87.209 7.143 87.413 7.211C87.617 7.279 87.7756 7.36967 87.889 7.483C88.0023 7.585 88.076 7.70967 88.11 7.857C88.1553 7.993 88.178 8.129 88.178 8.265C88.178 8.435 88.1553 8.59367 88.11 8.741C88.076 8.877 88.0023 9.00167 87.889 9.115C87.7756 9.217 87.617 9.302 87.413 9.37C87.209 9.42667 86.9483 9.455 86.631 9.455H85.56V11.104C85.56 11.3987 85.5203 11.6423 85.441 11.835C85.3616 12.0277 85.2596 12.1807 85.135 12.294C85.0103 12.4073 84.863 12.4867 84.693 12.532C84.5343 12.5773 84.3643 12.6 84.183 12.6C84.0016 12.6 83.826 12.5773 83.656 12.532C83.4973 12.4867 83.35 12.4073 83.214 12.294C83.0893 12.1807 82.9873 12.0277 82.908 11.835C82.84 11.6423 82.806 11.3987 82.806 11.104V5.409ZM73.49 4.678C73.49 4.34933 73.5863 4.11133 73.779 3.964C73.983 3.80533 74.4023 3.726 75.037 3.726H78.471C79.1056 3.726 79.5193 3.80533 79.712 3.964C79.916 4.11133 80.018 4.34933 80.018 4.678C80.018 4.96133 79.916 5.188 79.712 5.358C79.5193 5.51667 79.1056 5.596 78.471 5.596H75.037C74.4023 5.596 73.983 5.51667 73.779 5.358C73.5863 5.188 73.49 4.96133 73.49 4.678ZM75.666 15.439V16.442H82.806V15.439H75.666ZM75.751 9.438C75.751 9.55133 75.7623 9.676 75.785 9.812C75.819 9.93667 75.87 10.0557 75.938 10.169C76.0173 10.271 76.1193 10.3617 76.244 10.441C76.38 10.509 76.55 10.543 76.754 10.543C76.9693 10.543 77.1393 10.509 77.264 10.441C77.4 10.3617 77.502 10.271 77.57 10.169C77.6493 10.0557 77.7003 9.93667 77.723 9.812C77.7456 9.676 77.757 9.55133 77.757 9.438C77.757 9.32467 77.7456 9.20567 77.723 9.081C77.7003 8.945 77.6493 8.826 77.57 8.724C77.502 8.61067 77.4 8.52 77.264 8.452C77.1393 8.37267 76.9693 8.333 76.754 8.333C76.55 8.333 76.38 8.37267 76.244 8.452C76.1193 8.52 76.0173 8.61067 75.938 8.724C75.87 8.826 75.819 8.945 75.785 9.081C75.7623 9.20567 75.751 9.32467 75.751 9.438Z" fill="#0BAA78"/>
<path d="M10.6269 4.18143C10.3747 3.24025 9.49587 2.63585 8.55989 2.69475C7.92619 2.73463 7.67718 3.35262 7.79485 3.79179L8.36909 5.93489C8.48677 6.37406 9.01142 6.78476 9.58016 6.50244C10.4202 6.08546 10.8791 5.12262 10.6269 4.18143Z" fill="#E0FFB5" stroke="#0BAA78" stroke-width="1.24802"/>
<path fill-rule="evenodd" clip-rule="evenodd" d="M15.3017 6.14307C16.2354 6.19235 17.0723 6.83304 17.3274 7.78502C17.6446 8.96862 16.9422 10.1852 15.7586 10.5024C15.1879 10.6553 14.6095 10.5712 14.128 10.3104C13.8414 10.777 13.3825 11.139 12.8118 11.2919C12.2411 11.4449 11.6627 11.3607 11.1812 11.0999C10.8946 11.5666 10.4358 11.9286 9.86507 12.0815C9.29436 12.2344 8.71598 12.1503 8.23446 11.8895C7.94785 12.3561 7.48902 12.7182 6.91831 12.8711C5.73471 13.1883 4.51812 12.4859 4.20097 11.3023C3.94589 10.3503 4.35036 9.37695 5.13428 8.86745C4.92092 7.73774 5.61203 6.61735 6.74073 6.31491C7.31145 6.16199 7.88983 6.24611 8.37135 6.50693C8.65795 6.04029 9.11678 5.67825 9.68749 5.52533C10.2582 5.37241 10.8366 5.45653 11.3181 5.71734C11.6047 5.25071 12.0635 4.88867 12.6342 4.73574C13.763 4.43331 14.9217 5.05804 15.3017 6.14307Z" fill="#E0FFB5"/>
<path d="M15.3017 6.14307L14.6474 6.37229L14.8011 6.81096L15.2652 6.83545L15.3017 6.14307ZM14.128 10.3104L14.4582 9.70069L13.8808 9.38797L13.5372 9.94748L14.128 10.3104ZM11.1812 11.0999L11.5114 10.4903L10.9341 10.1775L10.5904 10.7371L11.1812 11.0999ZM8.23446 11.8895L8.56468 11.2799L7.9873 10.9671L7.64365 11.5266L8.23446 11.8895ZM4.20097 11.3023L3.53125 11.4817L4.20097 11.3023ZM5.13428 8.86745L5.51212 9.44879L5.90183 9.1955L5.81558 8.73878L5.13428 8.86745ZM6.74073 6.31491L6.56128 5.64519L6.74073 6.31491ZM8.37135 6.50693L8.04113 7.11658L8.6185 7.42931L8.96215 6.86979L8.37135 6.50693ZM9.68749 5.52533L9.86694 6.19504L9.68749 5.52533ZM11.3181 5.71734L10.9879 6.327L11.5653 6.63973L11.9089 6.08021L11.3181 5.71734ZM12.6342 4.73574L12.8137 5.40546L12.6342 4.73574ZM17.9971 7.60557C17.6621 6.35507 16.5629 5.51533 15.3383 5.45069L15.2652 6.83545C15.9078 6.86937 16.4826 7.31101 16.6577 7.96447L17.9971 7.60557ZM15.938 11.1721C17.4915 10.7558 18.4134 9.15905 17.9971 7.60557L16.6577 7.96447C16.8757 8.7782 16.3928 9.6146 15.5791 9.83264L15.938 11.1721ZM13.7978 10.92C14.429 11.2619 15.1893 11.3727 15.938 11.1721L15.5791 9.83264C15.1865 9.93786 14.79 9.88041 14.4582 9.70069L13.7978 10.92ZM12.9913 11.9617C13.74 11.761 14.3431 11.2849 14.7188 10.6732L13.5372 9.94748C13.3397 10.269 13.025 10.517 12.6324 10.6222L12.9913 11.9617ZM10.851 11.7096C11.4822 12.0515 12.2425 12.1623 12.9913 11.9617L12.6324 10.6222C12.2397 10.7274 11.8432 10.67 11.5114 10.4903L10.851 11.7096ZM10.0445 12.7512C10.7933 12.5506 11.3963 12.0745 11.772 11.4628L10.5904 10.7371C10.3929 11.0586 10.0783 11.3066 9.68562 11.4118L10.0445 12.7512ZM7.90424 12.4992C8.53548 12.8411 9.29577 12.9519 10.0445 12.7512L9.68562 11.4118C9.29295 11.517 8.89647 11.4596 8.56468 11.2799L7.90424 12.4992ZM7.09776 13.5408C7.84652 13.3402 8.44955 12.8641 8.82526 12.2524L7.64365 11.5266C7.44616 11.8482 7.13153 12.0962 6.73886 12.2014L7.09776 13.5408ZM3.53125 11.4817C3.94751 13.0352 5.54429 13.9571 7.09776 13.5408L6.73886 12.2014C5.92514 12.4194 5.08873 11.9365 4.87069 11.1228L3.53125 11.4817ZM4.75644 8.28611C3.72818 8.95442 3.19618 10.2312 3.53125 11.4817L4.87069 11.1228C4.6956 10.4693 4.97254 9.79949 5.51212 9.44879L4.75644 8.28611ZM5.81558 8.73878C5.66902 7.96279 6.1445 7.19247 6.92018 6.98463L6.56128 5.64519C5.07955 6.04222 4.17282 7.51268 4.45298 8.99612L5.81558 8.73878ZM6.92018 6.98463C7.31285 6.87941 7.70933 6.93686 8.04113 7.11658L8.70157 5.89727C8.07032 5.55536 7.31004 5.44456 6.56128 5.64519L6.92018 6.98463ZM9.50804 4.85561C8.75929 5.05624 8.15626 5.53233 7.78054 6.14406L8.96215 6.86979C9.15964 6.54826 9.47427 6.30026 9.86694 6.19504L9.50804 4.85561ZM11.6483 5.10768C11.0171 4.76577 10.2568 4.65498 9.50804 4.85561L9.86694 6.19504C10.2596 6.08983 10.6561 6.14728 10.9879 6.327L11.6483 5.10768ZM12.4548 4.06603C11.706 4.26665 11.103 4.74275 10.7273 5.35447L11.9089 6.08021C12.1064 5.75867 12.421 5.51068 12.8137 5.40546L12.4548 4.06603ZM15.9561 5.91385C15.457 4.48908 13.9365 3.669 12.4548 4.06603L12.8137 5.40546C13.5894 5.19762 14.3863 5.627 14.6474 6.37229L15.9561 5.91385Z" fill="#0BAA78"/>
<path fill-rule="evenodd" clip-rule="evenodd" d="M18.0918 10.7384C18.2786 11.4354 18.1118 12.1438 17.7014 12.6733C17.7681 12.8061 17.8224 12.9477 17.8624 13.0969C18.1352 14.1149 17.6537 15.1574 16.7605 15.6309C16.797 16.6412 16.135 17.5794 15.1169 17.8522C15.009 17.8811 14.9008 17.9016 14.793 17.9139C14.5357 18.5223 14.0106 19.01 13.3231 19.1942C12.6356 19.3784 11.937 19.2187 11.41 18.8204C11.3104 18.8636 11.2065 18.9 11.0986 18.9289C10.0805 19.2017 9.03807 18.7202 8.56456 17.827C7.55426 17.8635 6.61603 17.2015 6.34325 16.1834C6.30326 16.0342 6.27949 15.8844 6.27083 15.7361C5.65072 15.4827 5.1521 14.9526 4.96536 14.2557C4.64821 13.072 5.35061 11.8555 6.53421 11.5383C7.10492 11.3854 7.6833 11.4695 8.16482 11.7303C8.45142 11.2637 8.91025 10.9016 9.48096 10.7487C10.0517 10.5958 10.6301 10.6799 11.1116 10.9407C11.3982 10.4741 11.857 10.1121 12.4277 9.95915C12.9984 9.80622 13.5768 9.89035 14.0583 10.1512C14.3449 9.68453 14.8038 9.32249 15.3745 9.16956C16.5581 8.85242 17.7747 9.55482 18.0918 10.7384Z" fill="#9DE89F"/>
<path d="M17.7014 12.6733L17.1534 12.2485L16.8857 12.5939L17.0818 12.9844L17.7014 12.6733ZM16.7605 15.6309L16.4357 15.0183L16.0519 15.2218L16.0676 15.6559L16.7605 15.6309ZM14.793 17.9139L14.7139 17.2251L14.312 17.2713L14.1544 17.6439L14.793 17.9139ZM11.41 18.8204L11.828 18.2672L11.5052 18.0233L11.134 18.1843L11.41 18.8204ZM8.56456 17.827L9.17715 17.5022L8.97366 17.1184L8.5395 17.1341L8.56456 17.827ZM6.27083 15.7361L6.963 15.6957L6.93757 15.2595L6.53305 15.0942L6.27083 15.7361ZM8.16482 11.7303L7.8346 12.34L8.41197 12.6527L8.75562 12.0932L8.16482 11.7303ZM11.1116 10.9407L10.7814 11.5504L11.3587 11.8631L11.7024 11.3036L11.1116 10.9407ZM14.0583 10.1512L13.7281 10.7608L14.3055 11.0736L14.6491 10.514L14.0583 10.1512ZM18.2494 13.098C18.7869 12.4046 19.0068 11.4742 18.7615 10.559L17.4221 10.9179C17.5504 11.3966 17.4367 11.883 17.1534 12.2485L18.2494 13.098ZM18.5321 12.9174C18.4798 12.7225 18.4087 12.5368 18.321 12.3621L17.0818 12.9844C17.1275 13.0754 17.1649 13.1729 17.1926 13.2763L18.5321 12.9174ZM17.0852 16.2435C18.2576 15.6219 18.8903 14.2544 18.5321 12.9174L17.1926 13.2763C17.38 13.9754 17.0497 14.6928 16.4357 15.0183L17.0852 16.2435ZM16.0676 15.6559C16.0927 16.3504 15.6365 16.9952 14.9374 17.1825L15.2963 18.5219C16.6334 18.1637 17.5013 16.9319 17.4533 15.6058L16.0676 15.6559ZM14.9374 17.1825C14.8626 17.2025 14.7879 17.2166 14.7139 17.2251L14.8721 18.6027C15.0136 18.5865 15.1554 18.5597 15.2963 18.5219L14.9374 17.1825ZM13.5025 19.8639C14.4052 19.6221 15.0946 18.9808 15.4316 18.184L14.1544 17.6439C13.9768 18.0639 13.6159 18.3979 13.1436 18.5245L13.5025 19.8639ZM10.9919 19.3736C11.6822 19.8952 12.5998 20.1058 13.5025 19.8639L13.1436 18.5245C12.6713 18.651 12.1918 18.5422 11.828 18.2672L10.9919 19.3736ZM11.278 19.5986C11.419 19.5608 11.5552 19.5132 11.6859 19.4565L11.134 18.1843C11.0657 18.214 10.994 18.2391 10.9191 18.2592L11.278 19.5986ZM7.95197 18.1517C8.57349 19.3241 9.94099 19.9569 11.278 19.5986L10.9191 18.2592C10.2201 18.4465 9.50265 18.1162 9.17715 17.5022L7.95197 18.1517ZM5.67353 16.3629C6.03179 17.6999 7.26351 18.5678 8.58961 18.5199L8.5395 17.1341C7.84501 17.1592 7.20028 16.703 7.01297 16.004L5.67353 16.3629ZM5.57867 15.7764C5.59004 15.9715 5.62129 16.1679 5.67353 16.3629L7.01297 16.004C6.98524 15.9005 6.96893 15.7974 6.963 15.6957L5.57867 15.7764ZM4.29564 14.4351C4.54085 15.3503 5.19651 16.0461 6.00861 16.3779L6.53305 15.0942C6.10494 14.9193 5.76335 14.5549 5.63507 14.0762L4.29564 14.4351ZM6.35476 10.8686C4.80129 11.2848 3.87938 12.8816 4.29564 14.4351L5.63507 14.0762C5.41704 13.2625 5.89994 12.4261 6.71366 12.208L6.35476 10.8686ZM8.49504 11.1207C7.86379 10.7788 7.10351 10.668 6.35476 10.8686L6.71366 12.208C7.10633 12.1028 7.50281 12.1603 7.8346 12.34L8.49504 11.1207ZM9.30151 10.079C8.55276 10.2796 7.94973 10.7557 7.57401 11.3675L8.75562 12.0932C8.95311 11.7717 9.26774 11.5237 9.66041 11.4184L9.30151 10.079ZM11.4418 10.3311C10.8106 9.98918 10.0503 9.87838 9.30151 10.079L9.66041 11.4184C10.0531 11.3132 10.4496 11.3707 10.7814 11.5504L11.4418 10.3311ZM12.2483 9.28943C11.4995 9.49006 10.8965 9.96615 10.5208 10.5779L11.7024 11.3036C11.8999 10.9821 12.2145 10.7341 12.6072 10.6289L12.2483 9.28943ZM14.3886 9.54151C13.7573 9.19959 12.997 9.0888 12.2483 9.28943L12.6072 10.6289C12.9998 10.5236 13.3963 10.5811 13.7281 10.7608L14.3886 9.54151ZM15.195 8.49985C14.4463 8.70047 13.8432 9.17657 13.4675 9.7883L14.6491 10.514C14.8466 10.1925 15.1613 9.9445 15.5539 9.83928L15.195 8.49985ZM18.7615 10.559C18.3453 9.0055 16.7485 8.08359 15.195 8.49985L15.5539 9.83928C16.3677 9.62125 17.2041 10.1041 17.4221 10.9179L18.7615 10.559Z" fill="#0BAA78"/>
</svg>
