<svg width="21" height="23" viewBox="0 0 21 23" fill="none" xmlns="http://www.w3.org/2000/svg">
    <path d="M9.677 4.238A2.003 2.003 0 0 0 7.62 2.757c-.634.039-.883.658-.765 1.097l.57 2.128c.117.439.642.85 1.211.567a2.003 2.003 0 0 0 1.041-2.311z" fill="#E0FFB5" stroke="#0BAA78" stroke-width="1.248"/>
    <path fill-rule="evenodd" clip-rule="evenodd" d="M11.61 4.806a2.198 2.198 0 0 0-1.309.976 2.199 2.199 0 0 0-1.621-.191 2.199 2.199 0 0 0-1.309.976 2.206 2.206 0 0 0-3.219 2.347 2.207 2.207 0 1 0 3.083 3.005 2.2 2.2 0 0 0 1.622.191 2.199 2.199 0 0 0 1.308-.976c.479.26 1.054.343 1.622.191a2.199 2.199 0 0 0 1.308-.976 2.206 2.206 0 1 0 1.167-4.144 2.206 2.206 0 0 0-2.652-1.4z" fill="#E0FFB5"/>
    <path d="m10.301 5.782-.33.61.578.312.343-.56-.59-.362zm1.31-.976-.18-.67.18.67zM8.68 5.59l-.18-.67.18.67zm-1.309.976-.33.61.577.312.344-.56-.59-.362zm-1.621-.19-.18-.67.18.67zM4.152 8.913l.378.582.39-.254-.086-.456-.682.128zm-.928 2.421.67-.18-.67.18zm4.011.584.33-.61-.577-.312-.344.56.591.362zm2.93-.785.33-.61-.577-.312-.344.56.591.362zm2.93-.785.33-.61-.577-.312-.344.56.591.362zm1.167-4.144-.654.23.154.438.464.025.036-.693zm-3.37-.06c.196-.32.508-.565.898-.67l-.36-1.339c-.745.2-1.345.674-1.72 1.283l1.182.726zM8.86 6.26c.39-.105.783-.048 1.112.13l.66-1.219a2.892 2.892 0 0 0-2.13-.25l.358 1.339zm-.897.669c.196-.319.508-.565.897-.67L8.5 4.922c-.745.2-1.345.674-1.72 1.283l1.182.726zm-2.033.116c.39-.104.783-.048 1.112.13l.66-1.219a2.892 2.892 0 0 0-2.13-.25l.358 1.339zm-1.095 1.74a1.513 1.513 0 0 1 1.095-1.74l-.359-1.34a2.9 2.9 0 0 0-2.099 3.337l1.363-.257zm-.94 2.37a1.514 1.514 0 0 1 .636-1.66l-.755-1.163a2.9 2.9 0 0 0-1.22 3.182l1.34-.36zm1.853 1.07a1.513 1.513 0 0 1-1.853-1.07l-1.34.359a2.9 2.9 0 0 0 3.552 2.05l-.359-1.34zm.897-.67a1.505 1.505 0 0 1-.897.67l.359 1.339a2.892 2.892 0 0 0 1.72-1.283l-1.182-.726zm2.033-.115c-.39.104-.783.047-1.112-.131l-.66 1.219c.628.34 1.385.45 2.131.25l-.359-1.338zm.897-.67a1.505 1.505 0 0 1-.897.67l.359 1.339a2.892 2.892 0 0 0 1.72-1.283l-1.182-.726zm2.033-.116c-.39.105-.782.048-1.111-.13l-.661 1.219c.629.34 1.386.45 2.131.25l-.359-1.339zm.898-.669a1.505 1.505 0 0 1-.898.67l.36 1.339a2.892 2.892 0 0 0 1.72-1.283l-1.182-.726zm2.032-.116c-.39.105-.782.048-1.111-.13l-.66 1.219c.628.34 1.385.45 2.13.25l-.359-1.339zm1.07-1.853a1.513 1.513 0 0 1-1.07 1.853l.36 1.34a2.9 2.9 0 0 0 2.05-3.552l-1.34.36zm-1.381-1.12a1.514 1.514 0 0 1 1.381 1.12l1.34-.358a2.9 2.9 0 0 0-2.648-2.146l-.073 1.385zm-2.437-1.421c.77-.207 1.56.22 1.82.958l1.308-.458a2.9 2.9 0 0 0-3.486-1.84l.359 1.34z" fill="#0BAA78"/>
    <path fill-rule="evenodd" clip-rule="evenodd" d="M4.94 15.323a2.206 2.206 0 0 1 2.18-3.835 2.199 2.199 0 0 1 1.308-.976 2.199 2.199 0 0 1 1.622.19 2.199 2.199 0 0 1 1.308-.975 2.199 2.199 0 0 1 1.622.19 2.206 2.206 0 0 1 3.805 2.232 2.207 2.207 0 0 1-.85 3.47l.005.018a2.206 2.206 0 0 1-1.846 2.759 2.207 2.207 0 0 1-3.955 1.079l-.021.006a2.206 2.206 0 0 1-2.702-1.56l-.005-.017a2.207 2.207 0 0 1-2.47-2.58z" fill="#9DE89F"/>
    <path d="m4.94 15.323.682.125.087-.474-.414-.246-.355.595zm2.18-3.835-.33.61.577.312.343-.56-.59-.362zm2.93-.785-.33.61.577.312.343-.56-.59-.362zm2.93-.785-.33.61.577.312.344-.56-.591-.362zm3.805 2.232-.605-.339-.235.42.312.367.528-.449zm-.85 3.47-.26-.642-.572.232.164.595.668-.185zm-1.841 2.776-.09-.688-.537.07-.062.54.689.078zm-3.955 1.079.554-.418-.283-.375-.453.124.182.669zm-.021.006.18.67.002-.002-.182-.668zm-2.702-1.56-.67.177v.002l.67-.18zm-.005-.017.67-.177-.156-.594-.609.084.095.687zm-4.143-3.726c.204.76.692 1.369 1.317 1.741l.71-1.191a1.506 1.506 0 0 1-.687-.908l-1.34.358zm2.05-3.55a2.9 2.9 0 0 0-2.05 3.55l1.34-.358a1.513 1.513 0 0 1 1.07-1.853l-.36-1.34zm2.132.25a2.892 2.892 0 0 0-2.131-.25l.359 1.339c.39-.105.782-.048 1.111.13l.66-1.219zm.799-1.036c-.746.2-1.346.674-1.72 1.283l1.181.726c.196-.32.508-.565.898-.67l-.36-1.339zm2.13.251a2.892 2.892 0 0 0-2.13-.25l.359 1.339c.39-.105.782-.048 1.111.13l.66-1.219zm.8-1.036c-.746.2-1.346.674-1.72 1.283l1.181.726c.196-.32.508-.565.898-.67l-.36-1.339zm2.131.251a2.892 2.892 0 0 0-2.131-.25l.359 1.338c.39-.104.782-.047 1.112.131l.66-1.219zm.799-1.036c-.745.2-1.346.674-1.72 1.283l1.182.726c.196-.32.508-.565.897-.67l-.359-1.339zm3.551 2.05a2.9 2.9 0 0 0-3.551-2.05l.359 1.34a1.513 1.513 0 0 1 1.853 1.07l1.34-.36zm-.27 2.166a2.892 2.892 0 0 0 .27-2.166l-1.34.36c.107.396.046.796-.14 1.129l1.21.677zm.513.339a2.89 2.89 0 0 0-.59-1.126l-1.056.897c.14.165.246.363.307.587l1.339-.358zm-1.707 3.436a2.9 2.9 0 0 0 1.707-3.436l-1.34.358c.2.745-.193 1.51-.889 1.793l.522 1.285zm-.93-.458.004.011 1.34-.359a2.766 2.766 0 0 0-.006-.021l-1.337.369zm.004.011a1.513 1.513 0 0 1-1.07 1.853l.36 1.34a2.9 2.9 0 0 0 2.05-3.552l-1.34.36zM14.2 17.67c-.066.018-.131.03-.196.04l.18 1.374c.126-.016.25-.041.375-.075L14.2 17.67zm-1.548 3.278a2.9 2.9 0 0 0 2.13-2.473l-1.377-.157a1.514 1.514 0 0 1-1.112 1.29l.359 1.34zm-3.066-1.055a2.9 2.9 0 0 0 3.066 1.055l-.36-1.34a1.514 1.514 0 0 1-1.6-.55l-1.106.835zm.714.258.022-.006-.365-1.338-.022.006.365 1.337zM6.746 18.1a2.9 2.9 0 0 0 3.551 2.05l-.359-1.339a1.513 1.513 0 0 1-1.853-1.07l-1.339.36zm-.005-.019.004.017 1.341-.354-.004-.017-1.341.354zm-2.43-1.612a2.9 2.9 0 0 0 3.196 2.122l-.19-1.374A1.513 1.513 0 0 1 5.65 16.11l-1.34.359zm-.053-1.27c-.075.41-.062.842.052 1.27l1.34-.36a1.504 1.504 0 0 1-.028-.661l-1.364-.25z" fill="#0BAA78"/>
</svg>
